<?xml version="1.0" encoding="utf-8"?>
<!-- Generator: Adobe Illustrator 19.0.0, SVG Export Plug-In . SVG Version: 6.00 Build 0)  -->
<svg version="1.1" id="Layer_1" xmlns="http://www.w3.org/2000/svg" xmlns:xlink="http://www.w3.org/1999/xlink" x="0px" y="0px"
	 viewBox="0 0 306 292" style="enable-background:new 0 0 306 292;" xml:space="preserve">
<style type="text/css">
	.st0{fill-rule:evenodd;clip-rule:evenodd;fill:#181716;}
</style>
<g>
	<path class="st0" d="M72.8,138c10.5,16.6,22.2,32.2,35.9,46.3c13.9,14.3,29,27,47,35.7c12.3,5.9,25.1,10.8,37.8,15.8
		c5.6,2.2,11.5,3.5,17.3,5.1c7.4,2,14.8,0.2,22-1.3c12.2-2.5,22.7-8.8,31.2-18c1.3-1.4,2.4-3.1,3.2-4.8c3.4-7.2,5.1-14.9,5.7-24.3
		c0.5-2.4-1.5-4.8-4.8-6.6c-11.5-6.1-22.8-12.3-34.3-18.3c-3.9-2-7.9-3.9-12-5.5c-3.9-1.5-6.3-0.5-8.9,2.5
		c-6.2,7.2-12.4,14.4-18.7,21.5c-3.3,3.8-6.3,4.4-10.8,2.2c-5.5-2.6-11-5.3-16.3-8.2c-25.5-14.3-44.2-35.1-58.2-60.5
		c-3.1-5.6-2.5-7.9,1.9-12.5c5.4-5.6,11.1-11,14.6-18.1c1.5-2.9,1.9-5.7,0.7-8.9c-5.3-14.1-10.5-28.2-15.8-42.3
		c-0.8-2.2-1.8-4.2-3-6.3c-1.6-2.9-4.1-4.2-7.4-4.2c-2.4,0-4.8-0.1-7.2-0.4c-6.7-0.8-13.1-0.3-18.5,4.4C59,44.4,51.3,61,51.3,81
		c0,10.3,2.8,20.1,6.6,29.6C61.8,120.3,67.2,129.2,72.8,138z"/>
</g>
</svg>
