<?xml version="1.0" encoding="utf-8"?>
<!-- Generator: Adobe Illustrator 19.0.0, SVG Export Plug-In . SVG Version: 6.00 Build 0)  -->
<svg version="1.1" id="Layer_1" xmlns="http://www.w3.org/2000/svg" xmlns:xlink="http://www.w3.org/1999/xlink" x="0px" y="0px"
	 viewBox="0 0 15 12.3" style="enable-background:new 0 0 15 12.3;" xml:space="preserve">
<style type="text/css">
	.st0{fill:#181716;}
</style>
<g>
	<path class="st0" d="M13.4,9.9c0,0.6-0.5,1.1-1.1,1.1H2.5c-0.6,0-1.1-0.5-1.1-1.1V2.6c0-0.6,0.5-1.1,1.1-1.1h9.9
		c0.6,0,1.1,0.5,1.1,1.1V9.9z M12.4,2.4H2.5c-0.1,0-0.2,0.1-0.2,0.2c0,0.8,0.4,1.4,1,1.9C4.2,5.2,5.1,6,6,6.7C6.3,7,7,7.6,7.4,7.6h0
		h0c0.5,0,1.1-0.6,1.5-0.9c0.9-0.7,1.8-1.4,2.7-2.1c0.4-0.3,1-1.1,1-1.7C12.6,2.7,12.6,2.4,12.4,2.4z M12.6,4.8
		c-0.1,0.2-0.3,0.3-0.5,0.4c-1,0.7-1.9,1.5-2.9,2.3C8.8,7.9,8.1,8.4,7.4,8.4h0h0c-0.7,0-1.3-0.5-1.8-0.9C4.7,6.7,3.7,6,2.7,5.2
		C2.6,5.1,2.4,4.9,2.3,4.8v5.1c0,0.1,0.1,0.2,0.2,0.2h9.9c0.1,0,0.2-0.1,0.2-0.2V4.8z"/>
</g>
</svg>
