<?xml version="1.0" encoding="utf-8"?>
<!-- Generator: Adobe Illustrator 19.0.0, SVG Export Plug-In . SVG Version: 6.00 Build 0)  -->
<svg version="1.1" id="Layer_1" xmlns="http://www.w3.org/2000/svg" xmlns:xlink="http://www.w3.org/1999/xlink" x="0px" y="0px"
	 viewBox="0 0 15.3 14.9" style="enable-background:new 0 0 15.3 14.9;" xml:space="preserve">
<style type="text/css">
	.st0{fill:#181716;}
</style>
<g>
	<path class="st0" d="M12.8,4.3v6.4c0,1.1-0.9,1.9-1.9,1.9H9.6v-4h1.3l0.2-1.6H9.6v-1c0-0.4,0.1-0.8,0.8-0.8l0.8,0V3.9
		c-0.1,0-0.6-0.1-1.2-0.1c-1.2,0-2,0.7-2,2v1.1H6.7v1.6H8v4H4.4c-1.1,0-1.9-0.9-1.9-1.9V4.3c0-1.1,0.9-1.9,1.9-1.9h6.4
		C11.9,2.3,12.8,3.2,12.8,4.3z"/>
</g>
</svg>
