<?xml version="1.0" encoding="utf-8"?>
<!-- Generator: Adobe Illustrator 16.0.0, SVG Export Plug-In . SVG Version: 6.00 Build 0)  -->
<!DOCTYPE svg PUBLIC "-//W3C//DTD SVG 1.1//EN" "http://www.w3.org/Graphics/SVG/1.1/DTD/svg11.dtd" [
	<!ENTITY ns_flows "http://ns.adobe.com/Flows/1.0/">
	<!ENTITY ns_extend "http://ns.adobe.com/Extensibility/1.0/">
	<!ENTITY ns_ai "http://ns.adobe.com/AdobeIllustrator/10.0/">
	<!ENTITY ns_graphs "http://ns.adobe.com/Graphs/1.0/">
]>
<svg version="1.1" id="Layer_1" xmlns:x="&ns_extend;" xmlns:i="&ns_ai;" xmlns:graph="&ns_graphs;"
	 xmlns="http://www.w3.org/2000/svg" xmlns:xlink="http://www.w3.org/1999/xlink" xmlns:a="http://ns.adobe.com/AdobeSVGViewerExtensions/3.0/"
	 x="0px" y="0px" width="200px" height="200px" viewBox="0 0 200 200" enable-background="new 0 0 200 200" xml:space="preserve">
<g>
	<g>
		<path fill="#673AB7" d="M42.424,65.966c-0.188-0.453-0.49-0.801-0.906-1.049c-0.416-0.244-0.87-0.366-1.359-0.366
			c-0.492,0-0.946,0.132-1.361,0.396c-0.415,0.265-0.719,0.624-0.907,1.077l-16.266,36.555c-0.302,0.645-0.329,1.284-0.084,1.929
			c0.244,0.644,0.688,1.113,1.332,1.416c0.34,0.114,0.679,0.171,1.02,0.171c0.491,0,0.944-0.124,1.359-0.369
			c0.416-0.247,0.738-0.614,0.964-1.105l14-31.567l7.934,17.001h-9.011c-0.72,0-1.313,0.247-1.786,0.736
			c-0.473,0.493-0.708,1.077-0.708,1.759c0,0.719,0.235,1.313,0.708,1.785s1.066,0.708,1.786,0.708h11.392l4.477,9.635
			c0.302,0.643,0.774,1.077,1.417,1.305c0.643,0.225,1.285,0.188,1.927-0.114c0.643-0.301,1.077-0.765,1.306-1.39
			c0.226-0.623,0.187-1.254-0.116-1.898L42.424,65.966z"/>
		<path fill="#673AB7" d="M88.222,102.054c-0.253,0-0.384-0.011-0.445-0.018c-0.046-0.041-0.143-0.129-0.312-0.321
			c-0.072-0.07-0.204-0.223-0.425-0.545c-0.198-0.293-0.426-0.62-0.679-0.98c-0.249-0.353-0.503-0.725-0.765-1.117
			c-0.267-0.4-0.521-0.772-0.754-1.111c-0.373-0.561-0.72-1.067-1.04-1.521c-0.318-0.451-0.578-0.805-0.775-1.061l-0.029-0.035
			c1.327-0.861,2.424-1.992,3.267-3.372c0.969-1.583,1.458-3.366,1.458-5.297c0-1.427-0.278-2.79-0.824-4.052
			c-0.543-1.253-1.293-2.365-2.23-3.302c-0.938-0.938-2.05-1.689-3.304-2.231c-1.263-0.548-2.625-0.824-4.052-0.824H67.196
			c-0.662,0-1.238,0.23-1.713,0.687c-0.479,0.461-0.722,1.037-0.722,1.709v25.826c0,0.672,0.243,1.249,0.723,1.71
			c0.474,0.456,1.05,0.687,1.712,0.687c0.667,0,1.24-0.233,1.702-0.695c0.461-0.461,0.693-1.033,0.693-1.701V81.096h7.721
			c0.757,0,1.483,0.151,2.156,0.446c0.681,0.299,1.278,0.703,1.778,1.202c0.497,0.497,0.9,1.096,1.201,1.776
			c0.294,0.674,0.443,1.399,0.443,2.155s-0.148,1.473-0.442,2.132c-0.299,0.669-0.705,1.261-1.202,1.761
			c-0.501,0.498-1.098,0.903-1.778,1.202c-0.672,0.295-1.396,0.443-2.156,0.443c-0.667,0-1.246,0.24-1.721,0.715
			c-0.473,0.474-0.714,1.054-0.714,1.722c0,0.673,0.242,1.247,0.723,1.709c0.473,0.456,1.049,0.688,1.712,0.688
			c0.64,0,0.873,0.122,0.942,0.175c0.151,0.111,0.411,0.352,0.772,0.82l0.148,0.225c0.142,0.226,0.362,0.549,0.678,0.984
			c0.302,0.422,0.638,0.896,1.002,1.416c0.687,1.005,1.273,1.87,1.763,2.596c0.512,0.76,0.913,1.298,1.215,1.624
			c0.738,0.857,1.439,1.395,2.144,1.646c0.657,0.232,1.413,0.352,2.245,0.352c0.669,0,1.241-0.233,1.703-0.695
			c0.461-0.461,0.693-1.033,0.693-1.701c0-0.662-0.231-1.238-0.687-1.712C89.47,102.297,88.895,102.054,88.222,102.054z"/>
		<path fill="#673AB7" d="M113.851,76.347c-0.679,0-1.269,0.168-1.755,0.502c-0.445,0.308-0.827,0.697-1.132,1.156
			c-0.302,0.449-0.523,0.945-0.66,1.474c-0.131,0.51-0.197,1.008-0.197,1.478v16.994c0,0.514-0.147,0.986-0.453,1.444
			c-0.329,0.492-0.751,0.925-1.257,1.288c-0.518,0.373-1.109,0.67-1.761,0.887c-0.646,0.216-1.29,0.325-1.91,0.325h-0.674
			c-0.654,0-1.352-0.104-2.073-0.313c-0.711-0.205-1.377-0.522-1.98-0.943c-0.59-0.412-1.088-0.94-1.479-1.565
			c-0.373-0.598-0.563-1.336-0.563-2.192V78.7c0-0.636-0.225-1.19-0.666-1.651c-0.45-0.466-0.991-0.701-1.61-0.701
			c-0.673,0-1.241,0.235-1.689,0.703c-0.442,0.459-0.665,1.016-0.665,1.651v18.21c0,1.521,0.315,2.903,0.94,4.109
			c0.615,1.19,1.442,2.218,2.455,3.047c1.007,0.825,2.165,1.461,3.445,1.892c1.273,0.43,2.579,0.648,3.885,0.648h0.674
			c1.176,0,2.372-0.213,3.558-0.631c1.18-0.416,2.259-1.002,3.206-1.74c0.955-0.746,1.749-1.651,2.354-2.693
			c0.62-1.068,0.934-2.267,0.934-3.561v-17.02c0-0.058,0.007-0.112,0.014-0.171c0.346-0.153,0.646-0.385,0.9-0.69
			c0.341-0.415,0.516-0.887,0.516-1.4c0-0.64-0.233-1.198-0.694-1.661C115.052,76.58,114.492,76.347,113.851,76.347z"/>
		<path fill="#673AB7" d="M142.216,76.347c-0.646,0-1.201,0.235-1.648,0.703c-0.442,0.459-0.667,1-0.667,1.612v18.933
			l-15.422-20.351c-0.314-0.385-0.705-0.65-1.166-0.792c-0.463-0.144-0.943-0.128-1.404,0.045c-0.489,0.145-0.884,0.418-1.172,0.814
			c-0.289,0.396-0.436,0.85-0.436,1.351v25.747c0,0.646,0.239,1.203,0.703,1.649c0.46,0.442,1.002,0.666,1.614,0.666
			c0.642,0,1.193-0.227,1.642-0.674c0.447-0.447,0.676-0.999,0.676-1.642V85.51l15.433,20.282c0.432,0.611,1.07,0.933,1.848,0.933
			c0.148,0,0.356-0.027,0.675-0.091l0.101-0.027c0.453-0.176,0.827-0.461,1.105-0.847c0.289-0.396,0.436-0.85,0.436-1.351V78.663
			c0-0.609-0.224-1.153-0.667-1.612C143.417,76.583,142.861,76.347,142.216,76.347z"/>
		<path fill="#673AB7" d="M176.255,101.333h-20.403l22.33-33.098c0.528-0.795,0.586-1.606,0.171-2.438
			c-0.228-0.377-0.53-0.68-0.906-0.906c-0.379-0.228-0.776-0.339-1.191-0.339h-22.84c-0.643,0-1.199,0.235-1.672,0.708
			s-0.709,1.03-0.709,1.671c0,0.643,0.236,1.19,0.709,1.645c0.473,0.453,1.029,0.681,1.672,0.681h18.42l-22.387,33.097
			c-0.491,0.794-0.529,1.608-0.113,2.438c0.414,0.831,1.113,1.248,2.097,1.248h24.823c0.642,0,1.191-0.228,1.645-0.68
			c0.453-0.455,0.68-1.002,0.68-1.646c0-0.642-0.227-1.199-0.68-1.671S176.896,101.333,176.255,101.333z"/>
	</g>
	<g>
		<g>
			<path fill="#673AB7" d="M152.323,123.546c-0.424,0-0.84-0.208-1.084-0.59c-0.388-0.601-0.212-1.396,0.387-1.783
				c1.128-0.726,2.174-1.483,3.113-2.255c0.55-0.448,1.361-0.371,1.813,0.177c0.452,0.553,0.374,1.364-0.181,1.816
				c-1.015,0.833-2.14,1.651-3.352,2.43C152.809,123.481,152.563,123.546,152.323,123.546z"/>
		</g>
		<g>
			<path fill="#673AB7" d="M100.256,135.449h-0.189c-2.567,0-5.101-0.064-7.592-0.188c-0.71-0.035-1.26-0.64-1.222-1.352
				c0.032-0.709,0.553-1.31,1.353-1.223c2.443,0.121,4.938,0.186,7.461,0.186c0.71,0,1.384,0.575,1.384,1.288
				C101.45,134.872,100.966,135.449,100.256,135.449z M107.977,135.242c-0.684,0-1.25-0.532-1.288-1.222
				c-0.036-0.712,0.509-1.317,1.22-1.354c2.596-0.141,5.142-0.344,7.628-0.614c0.688-0.078,1.342,0.437,1.419,1.145
				c0.08,0.708-0.434,1.345-1.143,1.42c-2.546,0.275-5.156,0.487-7.766,0.623C108.022,135.242,107.999,135.242,107.977,135.242z
				 M84.837,134.663c-0.042,0-0.089-0.003-0.134-0.007c-2.62-0.277-5.221-0.63-7.729-1.042c-0.701-0.118-1.176-0.782-1.061-1.482
				c0.119-0.703,0.766-1.168,1.484-1.063c2.457,0.409,5.005,0.749,7.571,1.022c0.713,0.074,1.225,0.71,1.149,1.418
				C86.051,134.17,85.492,134.663,84.837,134.663z M123.325,133.568c-0.616,0-1.166-0.446-1.272-1.075
				c-0.115-0.701,0.354-1.368,1.056-1.486c2.56-0.43,5.079-0.941,7.48-1.52c0.726-0.164,1.39,0.264,1.556,0.957
				c0.166,0.689-0.263,1.386-0.954,1.553c-2.46,0.588-5.033,1.112-7.647,1.552C123.469,133.562,123.395,133.568,123.325,133.568z
				 M69.617,132.119c-0.099,0-0.199-0.011-0.295-0.036c-2.611-0.614-5.147-1.315-7.542-2.085c-0.677-0.217-1.047-0.944-0.83-1.623
				c0.216-0.675,0.926-1.055,1.624-0.831c2.323,0.746,4.796,1.432,7.338,2.032c0.69,0.162,1.125,0.857,0.959,1.549
				C70.733,131.719,70.202,132.119,69.617,132.119z M138.32,129.945c-0.546,0-1.047-0.345-1.228-0.887
				c-0.22-0.676,0.148-1.406,0.825-1.628c2.528-0.829,4.915-1.74,7.086-2.711c0.659-0.296,1.416,0.002,1.701,0.649
				c0.292,0.65,0,1.41-0.65,1.702c-2.25,1.009-4.718,1.953-7.334,2.809C138.588,129.923,138.454,129.945,138.32,129.945z
				 M54.955,127.338c-0.176,0-0.352-0.035-0.521-0.107c-2.578-1.137-4.935-2.379-6.999-3.685c-0.598-0.38-0.777-1.176-0.395-1.777
				c0.383-0.598,1.175-0.779,1.78-0.399c1.95,1.236,4.188,2.415,6.656,3.499c0.649,0.287,0.945,1.05,0.658,1.7
				C55.923,127.053,55.447,127.338,54.955,127.338z"/>
		</g>
		<g>
			<path fill="#673AB7" d="M42.067,118.864c-0.341,0-0.688-0.138-0.94-0.407c-1.024-1.093-1.9-2.24-2.597-3.409
				c-0.365-0.612-0.166-1.404,0.447-1.768c0.607-0.365,1.402-0.165,1.766,0.448c0.605,1.009,1.365,2.007,2.267,2.963
				c0.483,0.52,0.46,1.334-0.062,1.821C42.699,118.749,42.387,118.864,42.067,118.864z"/>
		</g>
		<g>
			<g>
				<polygon fill="#673AB7" points="150.611,117.208 160.5,114.384 158.001,124.361 				"/>
			</g>
		</g>
	</g>
</g>
</svg>
