<?xml version="1.0" encoding="utf-8"?>
<!-- Generator: Adobe Illustrator 16.0.0, SVG Export Plug-In . SVG Version: 6.00 Build 0)  -->
<!DOCTYPE svg PUBLIC "-//W3C//DTD SVG 1.1//EN" "http://www.w3.org/Graphics/SVG/1.1/DTD/svg11.dtd" [
	<!ENTITY ns_flows "http://ns.adobe.com/Flows/1.0/">
	<!ENTITY ns_extend "http://ns.adobe.com/Extensibility/1.0/">
	<!ENTITY ns_ai "http://ns.adobe.com/AdobeIllustrator/10.0/">
	<!ENTITY ns_graphs "http://ns.adobe.com/Graphs/1.0/">
]>
<svg version="1.1" id="Layer_1" xmlns:x="&ns_extend;" xmlns:i="&ns_ai;" xmlns:graph="&ns_graphs;"
	 xmlns="http://www.w3.org/2000/svg" xmlns:xlink="http://www.w3.org/1999/xlink" xmlns:a="http://ns.adobe.com/AdobeSVGViewerExtensions/3.0/"
	 x="0px" y="0px" width="841.89px" height="1190.55px" viewBox="0 0 841.89 1190.55" enable-background="new 0 0 841.89 1190.55"
	 xml:space="preserve">
<g>
	<path d="M222.559,670.006c7.256,12.883,15.873,25.219,25.365,36.559c8.846,10.568,19.577,19.57,29.621,29.109
		c2.723,2.586,4.747,4.844,4.7,9.146c-0.265,24.314-0.128,48.631-0.128,73.736c25.138-14.047,49.486-27.664,73.862-41.229
		c0.764-0.424,1.888-0.588,2.738-0.4c2.846,0.631,5.602,1.793,8.469,2.189c16.367,2.26,32.723,4.697,49.155,6.346
		c6.665,0.67,13.561-0.117,20.271-0.916c12.821-1.527,25.764-2.73,38.333-5.523c23.157-5.15,44.953-14.068,65.325-26.396
		c20.876-12.633,39.52-27.947,54.939-46.82c16.506-20.201,29.296-42.506,37.237-67.639c6.033-19.094,9.091-38.52,9.456-58.375
		c0.168-9.182-0.471-18.517-2.036-27.557c-2.134-12.314-4.694-24.674-8.532-36.543c-5.924-18.322-15.002-35.199-26.205-50.979
		c-14.243-20.063-31.369-37.059-51.495-51.17c-20.452-14.34-42.671-24.764-66.573-32.002c-20.233-6.127-40.958-9.238-61.881-9.534
		c-15.203-0.216-30.512,1.862-45.656,3.821c-20.183,2.611-39.472,9.051-57.524,18.156c-14.512,7.319-28.867,15.584-41.635,25.551
		c-13.204,10.306-25.367,22.354-36.242,35.125c-12.996,15.264-22.934,32.742-30.32,51.607
		c-8.125,20.754-12.815,42.125-13.684,64.371c-0.647,16.552,0.654,32.944,4.032,49.153
		C207.827,637.426,213.778,654.414,222.559,670.006z M397.649,522.429c19.126,19.955,37.98,39.627,57.014,59.486
		c36.05-19.908,71.888-39.699,107.728-59.49c0.152,0.248,0.305,0.496,0.457,0.744c-39.478,41.898-78.955,83.797-118.699,125.981
		c-19.217-19.949-38.119-39.57-57.199-59.376c-35.77,19.767-71.338,39.423-106.907,59.08c-0.227-0.275-0.454-0.551-0.68-0.826
		C318.623,606.34,357.884,564.652,397.649,522.429z"/>
</g>
</svg>
