<?xml version="1.0" encoding="utf-8"?>
<!-- Generator: Adobe Illustrator 16.0.0, SVG Export Plug-In . SVG Version: 6.00 Build 0)  -->
<!DOCTYPE svg PUBLIC "-//W3C//DTD SVG 1.1//EN" "http://www.w3.org/Graphics/SVG/1.1/DTD/svg11.dtd" [
	<!ENTITY ns_flows "http://ns.adobe.com/Flows/1.0/">
	<!ENTITY ns_extend "http://ns.adobe.com/Extensibility/1.0/">
	<!ENTITY ns_ai "http://ns.adobe.com/AdobeIllustrator/10.0/">
	<!ENTITY ns_graphs "http://ns.adobe.com/Graphs/1.0/">
]>
<svg version="1.1" id="Layer_1" xmlns:x="&ns_extend;" xmlns:i="&ns_ai;" xmlns:graph="&ns_graphs;"
	 xmlns="http://www.w3.org/2000/svg" xmlns:xlink="http://www.w3.org/1999/xlink" xmlns:a="http://ns.adobe.com/AdobeSVGViewerExtensions/3.0/"
	 x="0px" y="0px" width="841.89px" height="1190.55px" viewBox="0 0 841.89 1190.55" enable-background="new 0 0 841.89 1190.55"
	 xml:space="preserve">
<g>
	<path fill-rule="evenodd" clip-rule="evenodd" d="M337.747,594.958c10.488,16.575,22.172,32.18,35.853,46.258
		c13.873,14.279,29.05,26.982,47.047,35.67c12.277,5.924,25.056,10.844,37.758,15.836c5.57,2.189,11.491,3.504,17.285,5.102
		c7.438,2.049,14.804,0.232,21.971-1.258c12.249-2.547,22.67-8.777,31.186-18.004c1.291-1.4,2.405-3.061,3.227-4.779
		c3.438-7.193,5.055-14.857,5.689-24.334c0.478-2.439-1.466-4.842-4.834-6.625c-11.461-6.068-22.84-12.295-34.317-18.33
		c-3.882-2.043-7.878-3.939-11.985-5.465c-3.944-1.465-6.349-0.449-8.856,2.48c-6.177,7.219-12.386,14.412-18.689,21.521
		c-3.325,3.75-6.254,4.357-10.753,2.223c-5.509-2.613-11.021-5.254-16.334-8.238c-25.459-14.297-44.238-35.086-58.229-60.45
		c-3.069-5.564-2.545-7.943,1.895-12.52c5.422-5.588,11.063-11.008,14.644-18.127c1.481-2.945,1.875-5.748,0.7-8.868
		c-5.301-14.075-10.514-28.183-15.82-42.255c-0.813-2.156-1.846-4.246-2.95-6.272c-1.582-2.905-4.128-4.21-7.448-4.229
		c-2.389-0.013-4.791-0.142-7.16-0.434c-6.742-0.833-13.104-0.294-18.53,4.405c-15.128,13.101-22.869,29.67-22.848,49.652
		c0.01,10.288,2.789,20.105,6.588,29.625C326.715,577.276,332.161,586.132,337.747,594.958z"/>
	<path fill-rule="evenodd" clip-rule="evenodd" d="M209.867,787.848c-3.386,10.078-6.792,20.148-10.354,30.709
		c0.949-0.275,1.377-0.389,1.799-0.523c13.887-4.426,27.779-8.838,41.66-13.287c24.67-7.904,49.337-15.818,73.988-23.781
		c1.829-0.592,3.309-0.486,5.032,0.443c31.434,16.969,65.096,25.451,100.754,25.855c16.391,0.186,32.646-1.451,48.704-4.996
		c30.617-6.76,58.496-19.492,83.568-38.258c23.611-17.676,42.863-39.307,57.758-64.793c12.579-21.525,21.207-44.563,25.748-69.039
		c3.076-16.576,4.758-33.355,3.351-50.236c-0.928-11.13-1.735-22.36-3.939-33.275c-8.35-41.358-27.127-77.481-56.551-107.791
		c-38.914-40.086-86.499-61.907-142.128-66.249c-10.556-0.824-21.166-0.993-31.684,0.399c-11.142,1.475-22.383,2.708-33.305,5.235
		c-35.604,8.24-67,24.869-94.239,49.217c-27.739,24.793-47.802,54.793-60.31,89.841c-6.836,19.153-10.787,38.931-11.965,59.18
		c-0.568,9.758-0.396,19.634,0.403,29.376c0.856,10.422,2.316,20.859,4.449,31.094c4.695,22.529,13.296,43.623,24.911,63.494
		c0.541,0.924,0.824,2.395,0.5,3.369C228.69,731.857,219.275,759.852,209.867,787.848z M244.449,569.199
		c3.707-32.882,15.571-62.633,35.656-88.91c26.374-34.504,60.754-57.022,103.005-67.324c18.752-4.572,37.81-5.975,57.009-4.259
		c33.241,2.97,63.622,13.978,90.622,33.702c37.53,27.418,61.436,63.898,71.601,109.273c3.39,15.128,4.725,30.508,3.937,45.993
		c-1.584,31.092-10.232,60.066-26.567,86.67c-13.918,22.664-31.875,41.467-53.962,56.266
		c-22.247,14.908-46.572,24.521-73.113,28.572c-11.953,1.826-23.938,2.695-35.98,2.076c-32.253-1.658-62.124-11-89.378-28.43
		c-1.59-1.018-2.943-1.199-4.73-0.623c-21.354,6.896-42.73,13.723-64.103,20.561c-0.923,0.295-1.867,0.527-3.423,0.963
		c2.576-7.627,4.917-14.557,7.256-21.486c5.004-14.832,10.028-29.658,14.956-44.516c0.279-0.842,0.085-2.174-0.426-2.895
		c-15.757-22.193-25.973-46.715-30.817-73.459C242.858,604.076,242.484,586.632,244.449,569.199z"/>
</g>
</svg>
